<?xml version="1.0" encoding="utf-8" ?><svg xmlns="http://www.w3.org/2000/svg" xmlns:xlink="http://www.w3.org/1999/xlink" width="512" height="512" viewBox="0 0 512 512"><defs><linearGradient id="gradient_0" gradientUnits="userSpaceOnUse" x1="256.69702" y1="423.01007" x2="255.04927" y2="88.488708"><stop offset="0" stop-color="#029BFF"/><stop offset="1" stop-color="#09CDFC"/></linearGradient></defs><path fill="url(#gradient_0)" d="M151.853 88.5332L342.542 88.5319C351.908 88.5316 363.114 87.9204 372.059 89.594C398.944 94.6244 420.984 118.252 422.787 145.783C423.182 151.805 423.264 156.705 423.264 162.689L423.26 347.997C423.464 389.631 404.587 418.738 360.939 423.247L170.114 423.257C162.495 423.258 154.758 423.467 147.163 422.925C115.433 420.662 88.1497 391.702 89.2015 359.638C89.2848 357.098 89.2111 354.329 89.2149 351.738L89.2241 157.291C89.2231 152.181 89.025 146.279 89.8488 141.34C95.3033 108.646 120.681 91.0537 151.853 88.5332Z"/><path fill="white" d="M183.211 235.997C180.453 234.478 177.588 233.376 174.773 231.751C156.514 221.086 154.722 196.294 169.989 182.132C181.5 171.455 192.302 172.974 206.792 172.971L268.756 172.971C274.038 172.971 281.011 172.74 286.146 172.972C304.63 173.619 328.741 168.578 342.606 184.113C352.581 195.291 351.526 204.953 351.497 218.595C351.534 239.685 350.674 264.441 322.513 264.459L289.172 264.418L289.165 303.72C289.168 312.921 289.929 324.322 287.85 333.083C283.066 353.243 266.199 357.343 248.659 356.175C247.147 356.408 237.371 356.163 234.895 356.175L205.707 356.19C186.999 356.193 166.449 355.878 161.159 332.059C160.151 327.522 160.486 320.595 160.483 315.84L160.48 275.131C160.486 260.377 160.865 250.605 173.123 240.709C176.57 238.08 178.988 236.947 183.211 235.997Z"/><path fill="#FE9F42" d="M183.211 235.997C197.571 234.597 221.074 234.642 222.511 253.839L222.548 316.527C222.552 317.468 222.628 321.872 222.511 322.619C220.979 323.568 221.096 324.638 220.664 326.349C218.18 336.196 225.453 354.013 234.895 356.175L205.707 356.19C186.999 356.193 166.449 355.878 161.159 332.059C160.151 327.522 160.486 320.595 160.483 315.84L160.48 275.131C160.486 260.377 160.865 250.605 173.123 240.709C176.57 238.08 178.988 236.947 183.211 235.997Z"/><path fill="#FF8C42" d="M183.211 235.997C197.571 234.597 221.074 234.642 222.511 253.839C206.273 259.691 186.662 262.607 175.47 245.787C174.562 244.422 173.418 242.366 173.123 240.709C176.57 238.08 178.988 236.947 183.211 235.997Z"/><path fill="#FF8C42" d="M286.146 172.972C304.63 173.619 328.741 168.578 342.606 184.113C352.581 195.291 351.526 204.953 351.497 218.595C351.534 239.685 350.674 264.441 322.513 264.459L289.172 264.418L289.172 235.997L289.185 201.212C289.191 189.925 289.899 183.654 286.146 172.972Z"/><path fill="#F97201" d="M289.172 235.997C294.793 236.335 301.683 236.045 307.313 236.016C331.971 235.887 334.466 237.565 349.389 218.743C350.055 218.359 350.696 218.528 351.497 218.595C351.534 239.685 350.674 264.441 322.513 264.459L289.172 264.418L289.172 235.997Z"/><path fill="#F97201" d="M234.895 356.175C225.453 354.013 218.18 336.196 220.664 326.349C221.096 324.638 220.979 323.568 222.511 322.619C223.762 340.873 233.406 349.495 248.659 356.175C247.147 356.408 237.371 356.163 234.895 356.175Z"/></svg>